<?xml version="1.0" encoding="UTF-8" standalone="no"?>
<!-- Created with Inkscape (http://www.inkscape.org/) -->

<svg
   width="202"
   height="73"
   viewBox="0 0 53.445765 19.314592"
   version="1.1"
   id="svg2895"
   inkscape:version="1.3.2 (091e20e, 2023-11-25)"
   sodipodi:docname="logo-inline-light.svg"
   xml:space="preserve"
   xmlns:inkscape="http://www.inkscape.org/namespaces/inkscape"
   xmlns:sodipodi="http://sodipodi.sourceforge.net/DTD/sodipodi-0.dtd"
   xmlns="http://www.w3.org/2000/svg"
   xmlns:svg="http://www.w3.org/2000/svg"
   xmlns:rdf="http://www.w3.org/1999/02/22-rdf-syntax-ns#"
   xmlns:cc="http://creativecommons.org/ns#"
   xmlns:dc="http://purl.org/dc/elements/1.1/"><defs
     id="defs2889"><clipPath
       clipPathUnits="userSpaceOnUse"
       id="clipPath1050"><path
         d="M 0,5989 H 1280 V 0 H 0 Z"
         id="path1048"
         inkscape:connector-curvature="0" /></clipPath></defs><sodipodi:namedview
     id="base"
     pagecolor="#ffffff"
     bordercolor="#666666"
     borderopacity="1.0"
     inkscape:pageopacity="0.0"
     inkscape:pageshadow="2"
     inkscape:zoom="4.1380548"
     inkscape:cx="108.26343"
     inkscape:cy="-13.532928"
     inkscape:document-units="mm"
     inkscape:current-layer="g1044"
     showgrid="false"
     units="px"
     inkscape:window-width="1728"
     inkscape:window-height="975"
     inkscape:window-x="0"
     inkscape:window-y="38"
     inkscape:window-maximized="1"
     inkscape:pagecheckerboard="0"
     height="99px"
     inkscape:showpageshadow="2"
     inkscape:deskcolor="#d1d1d1"
     showguides="false"
     inkscape:lockguides="true" /><metadata
     id="metadata2892"><rdf:RDF><cc:Work
         rdf:about=""><dc:format>image/svg+xml</dc:format><dc:type
           rdf:resource="http://purl.org/dc/dcmitype/StillImage" /></cc:Work></rdf:RDF></metadata><g
     inkscape:label="Layer 1"
     inkscape:groupmode="layer"
     id="layer1"
     transform="translate(0,-288.79791)"><g
       transform="matrix(0.35277777,0,0,-0.35277777,-227.9607,2211.3842)"
       id="g1044"><g
         id="g381"
         transform="matrix(0.41057781,0,0,0.41057781,679.51318,5403.5638)"><path
           d="m 0,0 c -3.512,-3.512 -7.435,-6.372 -11.658,-8.499 -5.529,-2.783 -11.334,-4.194 -17.256,-4.194 -5.922,-0.001 -11.727,1.411 -17.253,4.194 -5.306,2.673 -10.101,6.474 -14.25,11.298 -8.56,9.95 -13.275,22.877 -13.275,36.398 0,21.55 7.949,42.888 20.747,55.686 7.38,7.38 15.689,11.281 24.031,11.281 11.127,0.001 22.413,-7.179 30.963,-19.697 C 10.834,73.604 15.874,56.375 15.874,39.199 15.875,25.678 11.159,12.75 2.596,2.799 1.76,1.829 0.888,0.888 0,0 Z"
           style="fill:none;stroke:#0c2646;stroke-width:6;stroke-linecap:round;stroke-linejoin:miter;stroke-miterlimit:10;stroke-dasharray:none;stroke-opacity:1"
           id="path383" /></g><g
         id="g385"
         transform="matrix(0.41057781,0,0,0.41057781,660.50072,5409.0067)"
         style="fill:#4d4d4d;fill-opacity:1"><path
           d="m 0,0 c 1.869,-3.871 1.528,-7.904 -0.762,-9.011 -2.291,-1.106 -5.662,1.135 -7.531,5.005 -1.869,3.87 -1.528,7.904 0.762,9.011 C -5.241,6.11 -1.869,3.87 0,0"
           style="fill:#4d4d4d;fill-opacity:1;fill-rule:nonzero;stroke:none"
           id="path387" /></g><g
         id="g389"
         transform="matrix(0.41057781,0,0,0.41057781,664.97779,5405.8653)"
         style="fill:#4d4d4d;fill-opacity:1"><path
           d="M 0,0 C 0.738,-3.064 -0.23,-5.926 -2.163,-6.392 -4.096,-6.857 -6.261,-4.751 -7,-1.687 -7.738,1.379 -6.77,4.24 -4.837,4.706 -2.904,5.172 -0.738,3.064 0,0"
           style="fill:#4d4d4d;fill-opacity:1;fill-rule:nonzero;stroke:none"
           id="path391" /></g><g
         id="g393"
         transform="matrix(0.41057781,0,0,0.41057781,683.57659,5422.5161)"
         style="fill:#4c4c4c;fill-opacity:1" /><g
         id="g397"
         transform="matrix(0.41057781,0,0,0.41057781,671.34174,5533.3833)"
         style="fill:#333333"><path
           id="path395"
           style="fill:#333333;fill-opacity:1;fill-rule:nonzero;stroke:none"
           d="m 10.711195,-237.50482 1.54484,-4.81291 -11.313369,-9.62938 -27.585928,-7.39954 -9.318991,-10.68187 -5.405158,1.23801 4.713012,-3.25737 3.000487,0.85983 2.943403,-7.64214 -4.138603,-9.02287 6.696688,9.0193 9.326127,4.85929 12.658415,-0.54943 14.217527,8.28791 9.486676,-2.08358 4.481108,-6.53613 -3.417915,7.57078 -6.632467,2.41895 -3.464296,14.75626 4.952052,7.7456 z m -11.18493,-17.53554 c 0.112998,-0.134 0.213963,-0.2767 0.313963,-0.4317 0.059998,-0.088 0.110549,-0.17601 0.160549,-0.26401 1.221998,-2.136 1.088491,-5.03525 -0.342505,-7.96325 -0.709,-1.44699 -1.704729,-2.83852 -2.907725,-4.08151 -1.214998,-1.243 -2.626149,-2.34769 -4.167145,-3.22169 -2.476996,-1.41 -5.339281,-1.89418 -8.070275,-1.35218 -0.277,0.054 -0.540908,0.12052 -0.784908,0.18552 -1.027998,0.283 -1.971965,0.71326 -2.814963,1.27726 -1.124998,0.748 -2.015848,1.7004 -2.650846,2.81139 -0.367,0.65 -0.635018,1.34687 -0.817018,2.07287 -0.09,0.369 -0.17193,0.75696 -0.20693,1.15596 l -0.03211,0.27115 c 0.422,0.303 0.846149,0.61618 1.245149,0.93118 0.313,0.254 0.62205,0.51634 0.92405,0.78134 l 0.224769,0.20336 0.246176,0.21764 c 0.166998,0.132 0.343189,0.26045 0.510189,0.39245 0.678,0.516 1.395115,0.95629 2.112115,1.38429 0.998281,0.58482 2.01799,1.10495 3.054003,1.58052 l -0.07492,-1.6376 2.971945,-2.32261 0.817017,-3.01833 c 0.009,-0.043 0.05147,-0.0898 0.103465,-0.0928 0.065,-0.013 0.128711,0.0395 0.142711,0.10347 l 0.602951,4.2599 0.060652,0.43884 -1.687551,1.82312 0.0036,1.70539 c 2.575994,1.01 5.229408,1.79062 7.945404,2.32262 1.037996,0.18799 2.073225,0.35437 3.118223,0.46737 z" /></g><g
         id="g401"
         transform="matrix(0.41057781,0,0,0.41057781,694.29648,5426.0746)" /><path
         style="fill:#333333;fill-opacity:1;stroke-width:0.166939"
         d="m 665.17528,5397.3541 c -6.75272,1.0633 -12.81666,6.432 -15.5492,13.7666 -1.08867,2.9222 -1.44739,5.034 -1.46034,8.5973 -0.0161,4.4349 0.50757,7.7161 1.90096,11.9106 2.87174,8.6448 8.33304,14.722 14.66709,16.3212 1.96695,0.4966 4.81984,0.386 6.76618,-0.2621 4.92365,-1.6397 9.33919,-6.0659 12.25136,-12.2809 2.99632,-6.3945 4.16763,-14.6596 2.93646,-20.72 -1.68417,-8.2902 -7.65408,-15.0731 -14.91757,-16.9489 -1.80644,-0.4665 -4.91902,-0.6477 -6.59494,-0.3838 z m 4.57184,2.3381 c 7.178,1.1325 13.31833,7.8446 14.78126,16.1577 0.3008,1.7093 0.33967,5.8301 0.0753,7.9836 -1.34516,10.9588 -7.37772,19.9823 -14.59951,21.8381 -1.26447,0.325 -3.36717,0.3237 -4.76441,-0.01 -5.93386,-1.3867 -11.54961,-8.5096 -13.7485,-17.4383 -1.00971,-4.1 -1.31263,-9.2668 -0.72966,-12.4454 1.87257,-10.2101 10.40911,-17.4461 18.98551,-16.093 z"
         id="path7324" /><path
         style="font-size:17.4522px;font-family:Questrial;-inkscape-font-specification:Questrial;fill:#b3b3b3;stroke-width:0.206128"
         d="m 699.6783,5407.0834 q -1.27401,0 -2.23389,0.5933 -0.94241,0.6109 -1.46598,1.6406 -0.52357,1.0296 -0.52357,2.2687 0,1.2566 0.52357,2.2688 0.52357,1.0297 1.46598,1.6231 0.95988,0.6108 2.23389,0.6108 1.08203,0 1.84993,-0.4188 0.78535,-0.4189 1.27401,-1.1344 v 4.904 h 1.30892 v -12.2165 h -1.30892 v 1.3962 q -0.48866,-0.6981 -1.27401,-1.117 -0.7679,-0.4188 -1.84993,-0.4188 z m 0.17452,1.1867 q 0.97732,0 1.64051,0.4538 0.68063,0.4537 1.02967,1.2042 0.34905,0.7679 0.34905,1.6579 0,0.9076 -0.34905,1.658 -0.34904,0.7504 -1.02967,1.2042 -0.66319,0.4538 -1.64051,0.4538 -0.95987,0 -1.65796,-0.4538 -0.69809,-0.4538 -1.06458,-1.2042 -0.3665,-0.7504 -0.3665,-1.658 0,-0.89 0.3665,-1.6579 0.36649,-0.7505 1.06458,-1.2042 0.69809,-0.4538 1.65796,-0.4538 z m 5.46252,-1.0471 3.36828,4.5027 -3.15885,4.2234 h 1.67541 l 2.25134,-3.2985 2.23388,3.2985 h 1.67541 l -3.15885,-4.2234 3.38573,-4.5027 h -1.67541 l -2.46076,3.5602 -2.47822,-3.5602 z m 17.06825,-0.1396 q -1.32637,0 -2.32114,0.5933 -0.99478,0.6109 -1.55325,1.6406 -0.54102,1.0296 -0.54102,2.2687 0,1.2566 0.52357,2.2688 0.52357,1.0297 1.50089,1.6231 0.97732,0.6108 2.30369,0.6108 1.34382,0 2.30369,-0.6108 0.97732,-0.5934 1.50089,-1.6231 0.52357,-1.0122 0.52357,-2.2688 v -0.5235 H 719.312 q 0.10472,-0.7679 0.48867,-1.4137 0.4014,-0.6282 1.06458,-1.0122 0.66318,-0.3665 1.53579,-0.3665 0.92497,0 1.55325,0.4014 0.62828,0.4189 0.97732,1.0646 h 1.43108 q -0.45375,-1.1693 -1.44853,-1.9197 -0.97732,-0.733 -2.53057,-0.733 z m -3.05413,5.2007 h 5.93374 q -0.17452,1.117 -0.94241,1.8674 -0.7679,0.7505 -2.02446,0.7505 -1.25656,0 -2.02445,-0.7505 -0.75045,-0.7504 -0.94242,-1.8674 z m 8.9006,-5.0611 v 8.7261 h 1.30892 v -1.3613 q 0.47121,0.6283 1.15184,1.0646 0.68064,0.4363 1.74522,0.4363 0.90752,0 1.69287,-0.4363 0.8028,-0.4189 1.29146,-1.274 0.50611,-0.8377 0.50611,-2.0768 v -5.0786 h -1.30891 v 5.0437 q 0,1.1867 -0.68064,1.9023 -0.68063,0.733 -1.76267,0.733 -0.73299,0 -1.32637,-0.3316 -0.59337,-0.3316 -0.95987,-0.9425 -0.34904,-0.5933 -0.34904,-1.3787 v -5.0262 z m 13.8745,-3.5952 q -1.64051,0 -2.67019,0.7156 -1.02968,0.6981 -1.39617,1.8325 h 1.44853 q 0.26178,-0.6458 0.90752,-0.9948 0.64573,-0.3665 1.6405,-0.3665 1.50089,0 2.18153,0.7155 0.69809,0.6981 0.69809,2.0419 v 1.2042 q -0.48867,-0.6981 -1.27402,-1.1344 -0.76789,-0.4188 -1.84993,-0.4188 -1.27401,0 -2.23388,0.5759 -0.94242,0.5934 -1.46598,1.6056 -0.52357,1.0122 -0.52357,2.2513 0,1.2566 0.52357,2.2514 0.52356,1.0122 1.46598,1.5881 0.95987,0.5934 2.23388,0.5934 1.08204,0 1.84993,-0.4188 0.78535,-0.4014 1.27402,-1.117 v 1.3962 h 1.30891 v -8.4643 q 0,-1.8674 -1.08204,-2.8622 -1.06458,-0.9948 -3.03668,-0.9948 z m -0.13962,4.7819 q 0.95987,0 1.62306,0.4363 0.68063,0.4363 1.02968,1.1693 0.36649,0.7505 0.36649,1.6405 0,0.9076 -0.36649,1.6406 -0.34905,0.7329 -1.02968,1.1693 -0.66319,0.4363 -1.62306,0.4363 -0.95987,0 -1.65796,-0.4363 -0.69808,-0.4364 -1.06458,-1.1693 -0.3665,-0.733 -0.3665,-1.6406 0,-0.89 0.3665,-1.6405 0.3665,-0.733 1.06458,-1.1693 0.69809,-0.4363 1.65796,-0.4363 z m 6.47476,9.0054 v 1.7103 h 1.41363 v -1.7103 z m 0.0524,-10.1921 v 8.7261 h 1.30891 v -8.7261 z m 3.57769,0 v 8.7261 h 1.30892 v -1.3613 q 0.47121,0.6283 1.15184,1.0646 0.68064,0.4363 1.74522,0.4363 0.90752,0 1.69287,-0.4363 0.8028,-0.4189 1.29146,-1.274 0.50611,-0.8377 0.50611,-2.0768 v -5.0786 h -1.30891 v 5.0437 q 0,1.1867 -0.68064,1.9023 -0.68063,0.733 -1.76267,0.733 -0.73299,0 -1.32637,-0.3316 -0.59337,-0.3316 -0.95987,-0.9425 -0.34904,-0.5933 -0.34904,-1.3787 v -5.0262 z m 13.75234,-0.1396 q -1.32637,0 -2.32114,0.5933 -0.99478,0.6109 -1.55325,1.6406 -0.54102,1.0296 -0.54102,2.2687 0,1.2566 0.52357,2.2688 0.52357,1.0297 1.50089,1.6231 0.97732,0.6108 2.30369,0.6108 1.34382,0 2.30369,-0.6108 0.97732,-0.5934 1.50089,-1.6231 0.52357,-1.0122 0.52357,-2.2688 v -0.5235 h -7.31248 q 0.10472,-0.7679 0.48867,-1.4137 0.4014,-0.6282 1.06458,-1.0122 0.66318,-0.3665 1.53579,-0.3665 0.92497,0 1.55325,0.4014 0.62828,0.4189 0.97732,1.0646 h 1.43108 q -0.45375,-1.1693 -1.44853,-1.9197 -0.97732,-0.733 -2.53057,-0.733 z m -3.05413,5.2007 h 5.93374 q -0.17452,1.117 -0.94241,1.8674 -0.7679,0.7505 -2.02446,0.7505 -1.25656,0 -2.02446,-0.7505 -0.75044,-0.7504 -0.94241,-1.8674 z"
         id="text1-9-2"
         aria-label="dx engine" /><g
         id="g405"
         transform="matrix(0.57991457,0,0,0.57991457,707.52796,5438.0367)"
         style="fill:#4d4d4d;fill-opacity:1"><path
           d="m 0,0 v -25.218 h -6.131 v 10.653 l -8.43,-1.908 v -8.745 h -6.13 V 0 l 6.13,1.604 v -12.176 l 8.43,1.907 V 1.604 Z"
           style="fill:#4d4d4d;fill-opacity:1;fill-rule:nonzero;stroke:none"
           id="path407" /></g><g
         id="g409"
         transform="matrix(0.57991457,0,0,0.57991457,763.05623,5438.0367)"
         style="fill:#4d4d4d;fill-opacity:1"><path
           d="m 0,0 v -25.218 h -6.131 v 10.653 l -8.431,-1.908 v -8.745 h -6.13 V 0 l 6.13,1.604 v -12.176 l 8.431,1.907 V 1.604 Z"
           style="fill:#4d4d4d;fill-opacity:1;fill-rule:nonzero;stroke:none"
           id="path411" /></g><g
         id="g413"
         transform="matrix(0.57991457,0,0,0.57991457,718.238,5429.1895)"
         style="fill:#4d4d4d;fill-opacity:1"><path
           d="M 0,0 -3.143,9.848 -6.889,-1.907 Z M 1.839,-5.747 -8.728,-7.654 -9.465,-9.962 h -6.705 l 9.119,26.821 H 0.766 L 9.886,-9.962 H 3.18 Z"
           style="fill:#4d4d4d;fill-opacity:1;fill-rule:nonzero;stroke:none"
           id="path415" /></g><g
         id="g417"
         transform="matrix(0.57991457,0,0,0.57991457,734.63642,5435.5448)"
         style="fill:#4d4d4d;fill-opacity:1"><path
           d="m 0,0 h -6.897 v -20.921 h -6.131 V 0 h -6.897 V 5.9 H 0 Z"
           style="fill:#4d4d4d;fill-opacity:1;fill-rule:nonzero;stroke:none"
           id="path419" /></g><g
         id="g421"
         transform="matrix(0.57991457,0,0,0.57991457,734.6359,5431.1898)"
         style="fill:#4d4d4d;fill-opacity:1"><path
           d="m 0,0 c 0,7.893 5.862,13.947 13.947,13.947 4.866,0 9.157,-2.414 11.495,-6.207 L 20.154,4.674 C 18.967,6.743 16.668,7.97 13.947,7.97 9.195,7.97 6.131,4.789 6.131,0 c 0,-4.79 3.064,-7.971 7.816,-7.971 2.721,0 5.058,1.227 6.207,3.295 l 5.288,-3.064 c -2.298,-3.794 -6.59,-6.208 -11.495,-6.208 C 5.862,-13.948 0,-7.895 0,0"
           style="fill:#4d4d4d;fill-opacity:1;fill-rule:nonzero;stroke:none"
           id="path423" /></g><g
         id="g425"
         transform="matrix(0.57991457,0,0,0.57991457,775.49888,5426.8342)"
         style="fill:#4d4d4d;fill-opacity:1"><path
           d="m 0,0 v -5.9 h -16.859 v 26.821 h 16.667 v -5.9 h -10.537 v -4.446 h 9.58 V 4.752 h -9.58 V 0 Z"
           style="fill:#4d4d4d;fill-opacity:1;fill-rule:nonzero;stroke:none"
           id="path427" /></g><g
         id="g429"
         transform="matrix(0.57991457,0,0,0.57991457,781.45261,5431.6338)"
         style="fill:#4d4d4d;fill-opacity:1"><path
           d="m 0,0 h 4.598 c 1.685,0 3.064,1.494 3.064,3.449 0,1.954 -1.379,3.448 -3.064,3.448 H 0 Z M 2.911,-5.364 H 0 v -8.813 l -6.131,2.061 V 12.645 H 4.598 c 5.095,0 9.195,-4.1 9.195,-9.196 0,-3.296 -1.991,-6.284 -4.942,-7.778 l 4.519,-7.787 -5.401,-2.061 z"
           style="fill:#4d4d4d;fill-opacity:1;fill-rule:nonzero;stroke:none"
           id="path431" /></g></g></g></svg>
