<?xml version="1.0" encoding="UTF-8" standalone="no"?>
<!-- Created with Inkscape (http://www.inkscape.org/) -->

<svg
   width="202"
   height="35"
   viewBox="0 0 53.445765 9.2604225"
   version="1.1"
   id="svg2895"
   inkscape:version="1.3.2 (091e20e, 2023-11-25)"
   sodipodi:docname="word-mark-light.svg"
   xml:space="preserve"
   xmlns:inkscape="http://www.inkscape.org/namespaces/inkscape"
   xmlns:sodipodi="http://sodipodi.sourceforge.net/DTD/sodipodi-0.dtd"
   xmlns="http://www.w3.org/2000/svg"
   xmlns:svg="http://www.w3.org/2000/svg"
   xmlns:rdf="http://www.w3.org/1999/02/22-rdf-syntax-ns#"
   xmlns:cc="http://creativecommons.org/ns#"
   xmlns:dc="http://purl.org/dc/elements/1.1/"><defs
     id="defs2889"><clipPath
       clipPathUnits="userSpaceOnUse"
       id="clipPath1050"><path
         d="M 0,5989 H 1280 V 0 H 0 Z"
         id="path1048"
         inkscape:connector-curvature="0" /></clipPath></defs><sodipodi:namedview
     id="base"
     pagecolor="#ffffff"
     bordercolor="#666666"
     borderopacity="1.0"
     inkscape:pageopacity="0.0"
     inkscape:pageshadow="2"
     inkscape:zoom="3.4625412"
     inkscape:cx="138.48211"
     inkscape:cy="46.208836"
     inkscape:document-units="mm"
     inkscape:current-layer="g1044"
     showgrid="false"
     units="px"
     inkscape:window-width="1728"
     inkscape:window-height="981"
     inkscape:window-x="0"
     inkscape:window-y="38"
     inkscape:window-maximized="1"
     inkscape:pagecheckerboard="0"
     height="99px"
     inkscape:showpageshadow="2"
     inkscape:deskcolor="#d1d1d1"
     showguides="false"
     inkscape:lockguides="true" /><metadata
     id="metadata2892"><rdf:RDF><cc:Work
         rdf:about=""><dc:format>image/svg+xml</dc:format><dc:type
           rdf:resource="http://purl.org/dc/dcmitype/StillImage" /></cc:Work></rdf:RDF></metadata><g
     inkscape:label="Layer 1"
     inkscape:groupmode="layer"
     id="layer1"
     transform="translate(0,-288.79791)"><g
       transform="matrix(0.35277777,0,0,-0.35277777,-227.9607,2211.3842)"
       id="g1044"><g
         id="g393"
         transform="matrix(0.41057781,0,0,0.41057781,683.57659,5422.5161)"
         style="fill:#4c4c4c;fill-opacity:1" /><g
         id="g401"
         transform="matrix(0.41057781,0,0,0.41057781,694.29648,5426.0746)" /><g
         id="g405"
         transform="matrix(0.91693932,0,0,0.91693932,666.84846,5447.5092)"
         style="fill:#4d4d4d;fill-opacity:1"><path
           d="m 0,0 v -25.218 h -6.131 v 10.653 l -8.43,-1.908 v -8.745 h -6.13 V 0 l 6.13,1.604 v -12.176 l 8.43,1.907 V 1.604 Z"
           style="fill:#4d4d4d;fill-opacity:1;fill-rule:nonzero;stroke:none"
           id="path407" /></g><g
         id="g409"
         transform="matrix(0.91693932,0,0,0.91693932,754.64769,5447.5092)"
         style="fill:#4d4d4d;fill-opacity:1"><path
           d="m 0,0 v -25.218 h -6.131 v 10.653 l -8.431,-1.908 v -8.745 h -6.13 V 0 l 6.13,1.604 v -12.176 l 8.431,1.907 V 1.604 Z"
           style="fill:#4d4d4d;fill-opacity:1;fill-rule:nonzero;stroke:none"
           id="path411" /></g><g
         id="g413"
         transform="matrix(0.91693932,0,0,0.91693932,683.78277,5433.5203)"
         style="fill:#4d4d4d;fill-opacity:1"><path
           d="M 0,0 -3.143,9.848 -6.889,-1.907 Z M 1.839,-5.747 -8.728,-7.654 -9.465,-9.962 h -6.705 l 9.119,26.821 H 0.766 L 9.886,-9.962 H 3.18 Z"
           style="fill:#4d4d4d;fill-opacity:1;fill-rule:nonzero;stroke:none"
           id="path415" /></g><g
         id="g417"
         transform="matrix(0.91693932,0,0,0.91693932,709.71134,5443.5691)"
         style="fill:#4d4d4d;fill-opacity:1"><path
           d="m 0,0 h -6.897 v -20.921 h -6.131 V 0 h -6.897 V 5.9 H 0 Z"
           style="fill:#4d4d4d;fill-opacity:1;fill-rule:nonzero;stroke:none"
           id="path419" /></g><g
         id="g421"
         transform="matrix(0.91693932,0,0,0.91693932,709.71052,5436.6831)"
         style="fill:#4d4d4d;fill-opacity:1"><path
           d="m 0,0 c 0,7.893 5.862,13.947 13.947,13.947 4.866,0 9.157,-2.414 11.495,-6.207 L 20.154,4.674 C 18.967,6.743 16.668,7.97 13.947,7.97 9.195,7.97 6.131,4.789 6.131,0 c 0,-4.79 3.064,-7.971 7.816,-7.971 2.721,0 5.058,1.227 6.207,3.295 l 5.288,-3.064 c -2.298,-3.794 -6.59,-6.208 -11.495,-6.208 C 5.862,-13.948 0,-7.895 0,0"
           style="fill:#4d4d4d;fill-opacity:1;fill-rule:nonzero;stroke:none"
           id="path423" /></g><g
         id="g425"
         transform="matrix(0.91693932,0,0,0.91693932,774.32154,5429.7962)"
         style="fill:#4d4d4d;fill-opacity:1"><path
           d="m 0,0 v -5.9 h -16.859 v 26.821 h 16.667 v -5.9 h -10.537 v -4.446 h 9.58 V 4.752 h -9.58 V 0 Z"
           style="fill:#4d4d4d;fill-opacity:1;fill-rule:nonzero;stroke:none"
           id="path427" /></g><g
         id="g429"
         transform="matrix(0.91693932,0,0,0.91693932,783.73535,5437.3852)"
         style="fill:#4d4d4d;fill-opacity:1"><path
           d="m 0,0 h 4.598 c 1.685,0 3.064,1.494 3.064,3.449 0,1.954 -1.379,3.448 -3.064,3.448 H 0 Z M 2.911,-5.364 H 0 v -8.813 l -6.131,2.061 V 12.645 H 4.598 c 5.095,0 9.195,-4.1 9.195,-9.196 0,-3.296 -1.991,-6.284 -4.942,-7.778 l 4.519,-7.787 -5.401,-2.061 z"
           style="fill:#4d4d4d;fill-opacity:1;fill-rule:nonzero;stroke:none"
           id="path431" /></g></g></g></svg>
