<?xml version="1.0" encoding="UTF-8" standalone="no"?>
<!-- Created with Inkscape (http://www.inkscape.org/) -->

<svg
   width="1024mm"
   height="1024mm"
   viewBox="0 0 1024 1024"
   version="1.1"
   id="svg1"
   inkscape:version="1.3.2 (091e20e, 2023-11-25)"
   sodipodi:docname="egg-white.svg"
   xmlns:inkscape="http://www.inkscape.org/namespaces/inkscape"
   xmlns:sodipodi="http://sodipodi.sourceforge.net/DTD/sodipodi-0.dtd"
   xmlns="http://www.w3.org/2000/svg"
   xmlns:svg="http://www.w3.org/2000/svg">
  <sodipodi:namedview
     id="namedview1"
     pagecolor="#ffffff"
     bordercolor="#000000"
     borderopacity="0.25"
     inkscape:showpageshadow="2"
     inkscape:pageopacity="0.0"
     inkscape:pagecheckerboard="0"
     inkscape:deskcolor="#d1d1d1"
     inkscape:document-units="mm"
     inkscape:zoom="0.12887731"
     inkscape:cx="1101.8232"
     inkscape:cy="1699.2907"
     inkscape:window-width="1728"
     inkscape:window-height="981"
     inkscape:window-x="0"
     inkscape:window-y="38"
     inkscape:window-maximized="1"
     inkscape:current-layer="layer1" />
  <defs
     id="defs1" />
  <g
     inkscape:label="Layer 1"
     inkscape:groupmode="layer"
     id="layer1">
    <ellipse
       style="fill:#f9f9f9;stroke-width:2.8124"
       id="path1"
       cx="519.61078"
       cy="508.32645"
       rx="297.88831"
       ry="405.67715" />
    <g
       id="g381"
       transform="matrix(6.702677,0,0,-6.702677,709.26309,819.04744)">
      <path
         d="m 0,0 c -3.512,-3.512 -7.435,-6.372 -11.658,-8.499 -5.529,-2.783 -11.334,-4.194 -17.256,-4.194 -5.922,-0.001 -11.727,1.411 -17.253,4.194 -5.306,2.673 -10.101,6.474 -14.25,11.298 -8.56,9.95 -13.275,22.877 -13.275,36.398 0,21.55 7.949,42.888 20.747,55.686 7.38,7.38 15.689,11.281 24.031,11.281 11.127,0.001 22.413,-7.179 30.963,-19.697 C 10.834,73.604 15.874,56.375 15.874,39.199 15.875,25.678 11.159,12.75 2.596,2.799 1.76,1.829 0.888,0.888 0,0 Z"
         style="fill:none;stroke:#0c2646;stroke-width:6;stroke-linecap:round;stroke-linejoin:miter;stroke-miterlimit:10;stroke-dasharray:none;stroke-opacity:1"
         id="path383" />
    </g>
    <g
       id="g385"
       transform="matrix(6.702677,0,0,-6.702677,398.88494,730.19187)"
       style="fill:#4d4d4d;fill-opacity:1">
      <path
         d="m 0,0 c 1.869,-3.871 1.528,-7.904 -0.762,-9.011 -2.291,-1.106 -5.662,1.135 -7.531,5.005 -1.869,3.87 -1.528,7.904 0.762,9.011 C -5.241,6.11 -1.869,3.87 0,0"
         style="fill:#4d4d4d;fill-opacity:1;fill-rule:nonzero;stroke:none"
         id="path387" />
    </g>
    <g
       id="g389"
       transform="matrix(6.702677,0,0,-6.702677,471.97305,781.47537)"
       style="fill:#4d4d4d;fill-opacity:1">
      <path
         d="M 0,0 C 0.738,-3.064 -0.23,-5.926 -2.163,-6.392 -4.096,-6.857 -6.261,-4.751 -7,-1.687 -7.738,1.379 -6.77,4.24 -4.837,4.706 -2.904,5.172 -0.738,3.064 0,0"
         style="fill:#4d4d4d;fill-opacity:1;fill-rule:nonzero;stroke:none"
         id="path391" />
    </g>
    <g
       id="g397"
       transform="matrix(6.702677,0,0,-6.702677,575.86404,-1300.2543)"
       style="fill:#4d4d4d;fill-opacity:1">
      <path
         id="path395"
         style="fill:#4d4d4d;fill-opacity:1;fill-rule:nonzero;stroke:none"
         d="m 10.711195,-237.50482 1.54484,-4.81291 -11.313369,-9.62938 -27.585928,-7.39954 -9.318991,-10.68187 -5.405158,1.23801 4.713012,-3.25737 3.000487,0.85983 2.943403,-7.64214 -4.138603,-9.02287 6.696688,9.0193 9.326127,4.85929 12.658415,-0.54943 14.217527,8.28791 9.486676,-2.08358 4.481108,-6.53613 -3.417915,7.57078 -6.632467,2.41895 -3.464296,14.75626 4.952052,7.7456 z m -11.18493,-17.53554 c 0.112998,-0.134 0.213963,-0.2767 0.313963,-0.4317 0.059998,-0.088 0.110549,-0.17601 0.160549,-0.26401 1.221998,-2.136 1.088491,-5.03525 -0.342505,-7.96325 -0.709,-1.44699 -1.704729,-2.83852 -2.907725,-4.08151 -1.214998,-1.243 -2.626149,-2.34769 -4.167145,-3.22169 -2.476996,-1.41 -5.339281,-1.89418 -8.070275,-1.35218 -0.277,0.054 -0.540908,0.12052 -0.784908,0.18552 -1.027998,0.283 -1.971965,0.71326 -2.814963,1.27726 -1.124998,0.748 -2.015848,1.7004 -2.650846,2.81139 -0.367,0.65 -0.635018,1.34687 -0.817018,2.07287 -0.09,0.369 -0.17193,0.75696 -0.20693,1.15596 l -0.03211,0.27115 c 0.422,0.303 0.846149,0.61618 1.245149,0.93118 0.313,0.254 0.62205,0.51634 0.92405,0.78134 l 0.224769,0.20336 0.246176,0.21764 c 0.166998,0.132 0.343189,0.26045 0.510189,0.39245 0.678,0.516 1.395115,0.95629 2.112115,1.38429 0.998281,0.58482 2.01799,1.10495 3.054003,1.58052 l -0.07492,-1.6376 2.971945,-2.32261 0.817017,-3.01833 c 0.009,-0.043 0.05147,-0.0898 0.103465,-0.0928 0.065,-0.013 0.128711,0.0395 0.142711,0.10347 l 0.602951,4.2599 0.060652,0.43884 -1.687551,1.82312 0.0036,1.70539 c 2.575994,1.01 5.229408,1.79062 7.945404,2.32262 1.037996,0.18799 2.073225,0.35437 3.118223,0.46737 z" />
    </g>
    <path
       style="fill:#4d4d4d;fill-opacity:1;stroke-width:2.72527"
       d="M 475.19707,920.42057 C 364.95894,903.06213 265.96484,815.41804 221.35658,695.68093 203.58397,647.97637 197.7278,613.50107 197.51634,555.33035 c -0.27767,-72.39999 8.2861,-125.96534 31.03331,-194.4407 46.88086,-141.12616 136.03678,-240.33635 239.43999,-266.443186 32.11016,-8.10702 78.68376,-6.30134 110.4575,4.28051 80.37881,26.768096 152.46227,99.026016 200.00349,200.485656 48.91467,104.3903 68.03665,239.31783 47.93778,338.25364 -27.49417,135.33753 -124.95284,246.06804 -243.52937,276.69042 -29.49003,7.61559 -80.30293,10.57397 -107.66197,6.26573 z m 74.6351,-38.16948 c 117.18085,-18.48803 217.42161,-128.06304 241.30399,-263.77402 4.91028,-27.90464 5.54473,-95.17635 1.23092,-130.33238 C 770.40746,309.2424 671.9261,161.93384 554.03029,131.63813 c -20.6426,-5.30548 -54.96891,-5.28465 -77.77907,0.18503 -96.87003,22.63755 -188.54704,138.91882 -224.44393,284.67992 -16.48336,66.93254 -21.42881,151.2804 -11.91179,203.17106 30.56965,166.67953 169.92853,284.80719 309.93806,262.71801 z"
       id="path7324" />
  </g>
</svg>
